<svg width="100%" height="100%" overflow="visible" style="display: block;" viewBox="0 0 21.8872 21.8674" fill="none" xmlns="http://www.w3.org/2000/svg">
<path id="Vector" d="M8.9436 11.9336C9.37306 12.5077 9.92096 12.9827 10.5502 13.3265C11.1793 13.6703 11.8751 13.8747 12.5903 13.9259C13.3054 13.9771 14.0232 13.8739 14.6949 13.6233C15.3667 13.3728 15.9767 12.9806 16.4836 12.4736L19.4836 9.47356C20.3944 8.53055 20.8984 7.26754 20.887 5.95655C20.8756 4.64557 20.3497 3.39151 19.4227 2.46447C18.4957 1.53743 17.2416 1.01158 15.9306 1.00019C14.6196 0.988797 13.3566 1.49277 12.4136 2.40356L10.6936 4.11356M12.9436 9.93382C12.5141 9.35969 11.9662 8.88464 11.337 8.54088C10.7078 8.19712 10.0121 7.9927 9.29691 7.94149C8.58177 7.89027 7.86397 7.99345 7.19221 8.24404C6.52045 8.49462 5.91044 8.88675 5.40356 9.39382L2.40356 12.3938C1.49277 13.3368 0.988797 14.5998 1.00019 15.9108C1.01158 17.2218 1.53743 18.4759 2.46447 19.4029C3.39151 20.33 4.64557 20.8558 5.95655 20.8672C7.26754 20.8786 8.53055 20.3746 9.47356 19.4638L11.1836 17.7538" stroke="var(--stroke-0, black)" stroke-width="2" stroke-linecap="round" stroke-linejoin="round"/>
</svg>
